<?xml version="1.0" encoding="UTF-8" standalone="no"?>
<svg
   width="100"
   height="100"
   viewBox="0 0 100 100"
   version="1.1"
   preserveAspectRatio="xMidYMid"
   id="svg6"
   sodipodi:docname="gmail.svg"
   inkscape:version="1.2.1 (9c6d41e, 2022-07-14)"
   xmlns:inkscape="http://www.inkscape.org/namespaces/inkscape"
   xmlns:sodipodi="http://sodipodi.sourceforge.net/DTD/sodipodi-0.dtd"
   xmlns="http://www.w3.org/2000/svg"
   xmlns:svg="http://www.w3.org/2000/svg">
  <defs
     id="defs10" />
  <sodipodi:namedview
     id="namedview8"
     pagecolor="#505050"
     bordercolor="#ffffff"
     borderopacity="1"
     inkscape:pageshadow="0"
     inkscape:pageopacity="0"
     inkscape:pagecheckerboard="1"
     showgrid="false"
     width="100px"
     inkscape:zoom="2.5625"
     inkscape:cx="20.097561"
     inkscape:cy="49.365854"
     inkscape:window-width="1920"
     inkscape:window-height="1027"
     inkscape:window-x="0"
     inkscape:window-y="25"
     inkscape:window-maximized="1"
     inkscape:current-layer="svg6"
     inkscape:showpageshadow="0"
     inkscape:deskcolor="#505050" />
  <circle
     style="fill:#808080;fill-opacity:0.501706;stroke:none;stroke-width:2"
     id="path11326"
     cx="50"
     cy="50"
     r="50" />
  <g
     id="g12"
     transform="matrix(0.234375,0,0,0.234375,20,27.494197)">
    <path
       d="M 58.181818,192.04952 V 93.140424 L 27.506623,65.077009 0,49.504061 V 174.59497 c 0,9.65818 7.8254545,17.45455 17.454545,17.45455 z"
       fill="#4285f4"
       id="path2-5" />
    <path
       d="m 197.81818,192.04952 h 40.72727 c 9.65819,0 17.45455,-7.82546 17.45455,-17.45455 V 49.504061 l -31.15559,17.838216 -27.02623,25.798147 z"
       fill="#34a853"
       id="path4" />
    <polygon
       fill="#ea4335"
       points="197.81818,17.504061 202.48749,52.496009 197.81818,93.140424 128,145.50406 58.181818,93.140424 54.007762,54.493283 58.181818,17.504061 128,69.867697 "
       id="polygon6" />
    <path
       d="M 197.81818,17.504061 V 93.140424 L 256,49.504061 V 26.231334 C 256,4.645879 231.36,-7.6595756 214.10909,5.285879 Z"
       fill="#fbbc04"
       id="path8" />
    <path
       d="M 0,49.504061 26.758805,69.573165 58.181818,93.140424 V 17.504061 L 41.890909,5.285879 C 24.610909,-7.6595756 0,4.645879 0,26.231334 Z"
       fill="#c5221f"
       id="path10" />
  </g>
</svg>
