<?xml version="1.0" encoding="UTF-8" standalone="no"?>
<svg
   xmlns:dc="http://purl.org/dc/elements/1.1/"
   xmlns:cc="http://creativecommons.org/ns#"
   xmlns:rdf="http://www.w3.org/1999/02/22-rdf-syntax-ns#"
   xmlns:svg="http://www.w3.org/2000/svg"
   xmlns="http://www.w3.org/2000/svg"
   xmlns:sodipodi="http://sodipodi.sourceforge.net/DTD/sodipodi-0.dtd"
   xmlns:inkscape="http://www.inkscape.org/namespaces/inkscape"
   width="600"
   height="50"
   viewBox="0 0 158.75 13.229167"
   version="1.1"
   id="svg8"
   inkscape:version="1.0.1 (3bc2e81, 2020-09-07)"
   sodipodi:docname="ReadmeImg.svg">
  <defs
     id="defs2" />
  <sodipodi:namedview
     id="base"
     pagecolor="#ffffff"
     bordercolor="#666666"
     borderopacity="1.0"
     inkscape:pageopacity="0.0"
     inkscape:pageshadow="2"
     inkscape:zoom="0.76148649"
     inkscape:cx="306.52345"
     inkscape:cy="-90.552928"
     inkscape:document-units="mm"
     inkscape:current-layer="layer1"
     inkscape:document-rotation="0"
     showgrid="false"
     units="px"
     inkscape:window-width="1366"
     inkscape:window-height="731"
     inkscape:window-x="0"
     inkscape:window-y="0"
     inkscape:window-maximized="1" />
  <metadata
     id="metadata5">
    <rdf:RDF>
      <cc:Work
         rdf:about="">
        <dc:format>image/svg+xml</dc:format>
        <dc:type
           rdf:resource="http://purl.org/dc/dcmitype/StillImage" />
        <dc:title></dc:title>
      </cc:Work>
    </rdf:RDF>
  </metadata>
  <g
     inkscape:label="Capa 1"
     inkscape:groupmode="layer"
     id="layer1">
    <rect
       style="opacity:0.956;fill:#606060;fill-opacity:0;stroke-width:0.0653743;stroke-linejoin:round;paint-order:markers stroke fill"
       id="rect833"
       width="158.75"
       height="13.229167"
       x="0"
       y="0" />
    <g
       id="g1403"
       transform="matrix(0.10369063,0,0,0.10369063,72.002895,7.0888725)">
      <path
         d="m -49.476267,-43.203458 -6.149219,68.886846 -27.640967,7.662984 -27.564857,-7.652191 -6.14271,-68.897639 z"
         fill="#e44d26"
         id="path1111"
         style="stroke-width:0.264583" />
      <path
         d="m -83.225144,27.489114 22.335252,-6.192203 5.254916,-58.866965 h -27.590168 z"
         fill="#f16529"
         id="path1113"
         style="stroke-width:0.264583" />
      <path
         d="m -95.17896,-20.669844 h 11.953816 v -8.450103 h -21.188626 l 0.20227,2.267018 2.07685,23.2859369 h 18.909506 v -8.4499189 h -11.181582 z"
         fill="#ebebeb"
         id="path1115"
         style="stroke-width:0.264583" />
      <path
         d="m -93.274612,0.65815494 h -8.482488 l 1.18385,13.26773206 17.309215,4.805159 0.03889,-0.01079 V 9.9286865 l -0.03703,0.00987 -9.410838,-2.5411165 -0.601599,-6.73928141 z"
         fill="#ebebeb"
         id="path1117"
         style="stroke-width:0.264583" />
      <path
         d="m -83.254359,-3.5669921 h 10.405255 l -0.980831,10.9590309 -9.424424,2.5437227 v 8.7911915 l 17.322988,-4.801066 0.127092,-1.42761 1.985666,-22.2461209 0.206177,-2.2690671 h -19.641923 z"
         fill="#ffffff"
         id="path1127"
         style="stroke-width:0.264583" />
      <path
         d="m -83.254359,-20.690497 v 0.02066 h 20.410807 l 0.169519,-1.899325 0.385,-4.28376 0.202086,-2.267019 h -21.167412 v 8.42945 z"
         fill="#ffffff"
         id="path1129"
         style="stroke-width:0.264583" />
    </g>
    <g
       id="g1385"
       transform="matrix(0.10369063,0,0,0.10369063,57.248224,-3.1137175)">
      <path
         d="m -85.018913,131.74088 -27.564857,-7.65219 -6.14271,-68.897639 h 67.497753 l -6.149219,68.886849 z"
         fill="#264de4"
         id="path1216"
         style="stroke-width:0.264583" />
      <path
         d="m -62.642352,119.69142 5.254916,-58.866965 h -27.590168 v 65.059165 z"
         fill="#2965f1"
         id="path1218"
         style="stroke-width:0.264583" />
      <path
         d="m -104.64446,86.377598 0.75735,8.449919 h 18.909506 v -8.449919 z"
         fill="#ebebeb"
         id="path1220"
         style="stroke-width:0.264583" />
      <path
         d="m -106.16623,69.274562 0.76814,8.450103 h 20.420486 v -8.450103 z"
         fill="#ebebeb"
         id="path1222"
         style="stroke-width:0.264583" />
      <path
         d="m -84.977604,108.3232 -0.03703,0.01 -9.410838,-2.54112 -0.601599,-6.739281 h -8.482489 l 1.18385,13.267731 17.309216,4.80516 0.03889,-0.0108 v -8.79157 z"
         fill="#ebebeb"
         id="path1224"
         style="stroke-width:0.264583" />
      <path
         d="m -65.364896,86.377598 1.525489,-17.103036 h -21.167412 v 8.450103 h 11.906924 l -0.768884,8.652933 h -11.13804 v 8.449919 h 10.405255 l -0.980831,10.959033 -9.424424,2.54372 v 8.79119 l 17.322988,-4.80106 0.127092,-1.42761 1.985666,-22.246125 z"
         fill="#ffffff"
         id="path1232"
         style="stroke-width:0.264583" />
    </g>
    <path
       d="m 115.69235,5.2148325 c -0.0925,-0.0319 -0.18846,-0.062 -0.28719,-0.0905 0.0162,-0.0662 0.0311,-0.13162 0.0444,-0.19588 0.21739,-1.05527 0.0753,-1.90541 -0.41012,-2.18531 -0.46541,-0.26838 -1.22655,0.0115 -1.99527,0.68044 -0.074,0.0643 -0.14805,0.13244 -0.22214,0.20382 -0.0493,-0.0472 -0.0987,-0.0929 -0.14783,-0.13652 -0.80564,-0.71532 -1.61316,-1.01677 -2.09805,-0.73606 -0.46497,0.26916 -0.60267,1.06837 -0.40698,2.06846 0.0189,0.0966 0.0409,0.19524 0.066,0.29554 -0.11429,0.0324 -0.22462,0.067 -0.33019,0.10382 -0.94452,0.3293 -1.54774,0.8454 -1.54774,1.38073 0,0.55289 0.64755,1.10745 1.63135,1.44371 0.0776,0.0265 0.1582,0.0516 0.24121,0.0754 -0.0269,0.10848 -0.0504,0.21478 -0.07,0.31846 -0.18659,0.98273 -0.0409,1.7630605 0.42285,2.0305205 0.47899,0.27622 1.28286,-0.008 2.06564,-0.6919305 0.0619,-0.0541 0.12396,-0.11145 0.18616,-0.17157 0.0806,0.0776 0.16112,0.15111 0.24118,0.22003 0.75821,0.6524605 1.50706,0.9159305 1.97036,0.6477105 0.4785,-0.27701 0.63402,-1.1152605 0.43212,-2.1351405 -0.0154,-0.0779 -0.0334,-0.15746 -0.0535,-0.23845 0.0565,-0.0167 0.11188,-0.0339 0.16592,-0.0518 1.02275,-0.33886 1.68818,-0.88668 1.68818,-1.44695 0,-0.53727 -0.62267,-1.05684 -1.58621,-1.38854 z m -0.22183,2.47373 c -0.0487,0.0161 -0.0988,0.0318 -0.14984,0.0469 -0.11292,-0.35745 -0.26529,-0.73753 -0.45177,-1.13023 0.17795,-0.38334 0.32444,-0.75857 0.43419,-1.11369 0.0913,0.0264 0.17983,0.0543 0.26519,0.0837 0.82557,0.28421 1.32915,0.70441 1.32915,1.02818 0,0.34488 -0.54386,0.79259 -1.42692,1.08519 z m -0.36641,0.72606 c 0.0893,0.45098 0.10202,0.85871 0.0429,1.17745 -0.0531,0.28641 -0.15999,0.4773705 -0.29212,0.5538505 -0.28115,0.16273 -0.8824,-0.0488 -1.53083,-0.6067905 -0.0743,-0.064 -0.1492,-0.13227 -0.22431,-0.20455 0.25137,-0.27493 0.50261,-0.59455 0.74781,-0.94951 0.43128,-0.0383 0.83875,-0.10084 1.20826,-0.18626 0.0182,0.0734 0.0343,0.14541 0.0483,0.21581 z m -3.70543,1.7031705 c -0.2747,0.097 -0.49347,0.0998 -0.62572,0.0235 -0.28141,-0.1623105 -0.3984,-0.7888405 -0.23882,-1.6292705 0.0183,-0.0962 0.04,-0.19511 0.0651,-0.29617 0.36546,0.0808 0.76994,0.13896 1.20226,0.17401 0.24685,0.34734 0.50534,0.66661 0.76584,0.94616 -0.0569,0.055 -0.11361,0.10725 -0.16998,0.15654 -0.34614,0.30256 -0.693,0.5172305 -0.99869,0.6252005 z m -1.2869,-2.4313405 c -0.43501,-0.14869 -0.79427,-0.34193 -1.04052,-0.5528 -0.22127,-0.1895 -0.33298,-0.37763 -0.33298,-0.53028 0,-0.32486 0.48432,-0.73921 1.29208,-1.02084 0.098,-0.0342 0.20061,-0.0664 0.30709,-0.0966 0.11164,0.36314 0.25808,0.74281 0.43481,1.12674 -0.17901,0.38963 -0.32754,0.77536 -0.44027,1.14276 -0.0759,-0.0218 -0.14945,-0.0448 -0.22021,-0.069 z m 0.43138,-2.93637 c -0.16766,-0.85685 -0.0563,-1.50322 0.22389,-1.66542 0.29846,-0.17279 0.95845,0.0736 1.65406,0.69122 0.0445,0.0395 0.0891,0.0808 0.13387,0.12355 -0.25921,0.27832 -0.51534,0.59519 -0.76,0.94049 -0.41958,0.0389 -0.82122,0.10136 -1.19049,0.18501 -0.0232,-0.0934 -0.0438,-0.18514 -0.0613,-0.27485 z m 3.84828,0.95024 c -0.0883,-0.15248 -0.1789,-0.30135 -0.27129,-0.44616 0.28465,0.036 0.55737,0.0838 0.81348,0.14221 -0.0769,0.24642 -0.17272,0.50407 -0.28554,0.7682 -0.0809,-0.15363 -0.16651,-0.30854 -0.25665,-0.46425 z m -1.56931,-1.52852 c 0.17578,0.19045 0.35183,0.40308 0.52498,0.63378 -0.17449,-0.008 -0.35113,-0.0125 -0.52924,-0.0125 -0.17643,0 -0.35178,0.004 -0.52518,0.0123 0.17332,-0.22856 0.35089,-0.44091 0.52944,-0.63355 z m -1.57938,1.53116 c -0.0882,0.15291 -0.17219,0.30698 -0.25184,0.46133 -0.11098,-0.26321 -0.20593,-0.52204 -0.28349,-0.77196 0.25454,-0.057 0.52597,-0.10353 0.80881,-0.13884 -0.0937,0.14615 -0.18506,0.29612 -0.27348,0.44944 z m 0.28163,2.27747 c -0.29222,-0.0326 -0.56774,-0.0768 -0.82221,-0.13217 0.0788,-0.25438 0.17584,-0.51873 0.28917,-0.78761 0.0799,0.15424 0.1642,0.30837 0.25292,0.46161 h 2e-5 c 0.0904,0.15612 0.18399,0.30904 0.2801,0.45817 z m 1.30828,1.08138 c -0.18063,-0.1949 -0.3608,-0.41048 -0.53677,-0.64238 0.17083,0.007 0.34498,0.0101 0.52198,0.0101 0.18184,0 0.3616,-0.004 0.53853,-0.012 -0.17373,0.23607 -0.34914,0.45199 -0.52374,0.64422 z m 1.81907,-2.01487 c 0.11924,0.27179 0.21976,0.53476 0.29958,0.78481 -0.25868,0.059 -0.53795,0.10653 -0.83221,0.14185 0.0926,-0.14676 0.18404,-0.29819 0.27386,-0.45396 0.0909,-0.15759 0.17718,-0.31542 0.25877,-0.4727 z m -0.58889,0.2823 c -0.13946,0.24181 -0.28263,0.47264 -0.42798,0.69053 -0.26474,0.0189 -0.53823,0.0287 -0.81699,0.0287 -0.27763,0 -0.54768,-0.009 -0.80774,-0.0255 -0.15121,-0.22075 -0.29749,-0.45227 -0.43606,-0.69162 h 3e-5 c -0.1382,-0.23871 -0.2654,-0.47944 -0.38066,-0.71881 0.11523,-0.23993 0.24209,-0.48092 0.3795,-0.7192 l -3e-5,5e-5 c 0.13778,-0.23892 0.28277,-0.4693 0.43259,-0.68867 0.26532,-0.02 0.53739,-0.0305 0.81235,-0.0305 h 2e-5 c 0.2762,0 0.54862,0.0105 0.81386,0.0308 0.14752,0.21777 0.29154,0.44741 0.42985,0.68635 0.13989,0.24163 0.26839,0.48102 0.3846,0.71581 -0.11586,0.23882 -0.24408,0.48062 -0.38334,0.72214 z m 0.7862,-4.25592 c 0.29875,0.17228 0.41493,0.86709 0.22723,1.77821 -0.012,0.0581 -0.0254,0.11735 -0.0401,0.17736 -0.37013,-0.0854 -0.77205,-0.14896 -1.19285,-0.18843 -0.24514,-0.34909 -0.49917,-0.66645 -0.75416,-0.94121 0.0685,-0.066 0.13701,-0.12883 0.20519,-0.18817 0.65863,-0.57319 1.27422,-0.7995 1.55469,-0.63776 z m -2.03117,2.7334 c 0.43997,0 0.79665,0.35666 0.79665,0.79665 0,0.43997 -0.35668,0.79665 -0.79665,0.79665 -0.43998,0 -0.79665,-0.35668 -0.79665,-0.79665 0,-0.43999 0.35667,-0.79665 0.79665,-0.79665 z"
       fill="#00d8ff"
       id="path1336"
       style="stroke-width:0.0348491" />
    <g
       id="g1356"
       transform="matrix(0.03594882,0,0,0.03594882,91.214336,2.6090725)">
      <path
         d="M 204.8,0 H 256 L 128,220.8 0,0 H 50.56 97.92 L 128,51.2 157.44,0 Z"
         fill="#41b883"
         id="path1350" />
      <path
         d="M 0,0 128,220.8 256,0 H 204.8 L 128,132.48 50.56,0 Z"
         fill="#41b883"
         id="path1352" />
      <path
         d="M 50.56,0 128,133.12 204.8,0 H 157.44 L 128,51.2 97.92,0 Z"
         fill="#35495e"
         id="path1354" />
    </g>
    <g
       id="g1414"
       transform="matrix(0.10429278,0,0,0.10429278,82.946737,13.156573)">
      <rect
         style="opacity:0.956;fill:#ffbe00;fill-opacity:0.999972;stroke-width:0.15;stroke-linejoin:round;paint-order:markers stroke fill"
         id="rect1405"
         width="76.107857"
         height="76.107857"
         x="-72.942688"
         y="-101.13355"
         ry="11.52035" />
      <text
         xml:space="preserve"
         style="font-size:38.6717px;line-height:1.25;font-family:'DejaVu Serif';-inkscape-font-specification:'DejaVu Serif';stroke-width:0.966795"
         x="-45.136795"
         y="-32.175533"
         id="text1409"><tspan
           sodipodi:role="line"
           id="tspan1407"
           x="-45.136795"
           y="-32.175533"
           style="font-style:normal;font-variant:normal;font-weight:bold;font-stretch:normal;font-family:Quicksand;-inkscape-font-specification:'Quicksand Bold';stroke-width:0.966795">JS</tspan></text>
    </g>
  </g>
</svg>
