<?xml version="1.0" encoding="UTF-8" standalone="no"?>
<svg
   xmlns:dc="http://purl.org/dc/elements/1.1/"
   xmlns:cc="http://creativecommons.org/ns#"
   xmlns:rdf="http://www.w3.org/1999/02/22-rdf-syntax-ns#"
   xmlns:svg="http://www.w3.org/2000/svg"
   xmlns="http://www.w3.org/2000/svg"
   xmlns:sodipodi="http://sodipodi.sourceforge.net/DTD/sodipodi-0.dtd"
   xmlns:inkscape="http://www.inkscape.org/namespaces/inkscape"
   width="1000"
   height="100"
   viewBox="0 0 264.58333 26.458334"
   version="1.1"
   id="svg8"
   inkscape:version="1.0.1 (0767f8302a, 2020-10-17)"
   sodipodi:docname="dibujo.svg">
  <defs
     id="defs2" />
  <sodipodi:namedview
     id="base"
     pagecolor="#545454"
     bordercolor="#666666"
     borderopacity="1.0"
     inkscape:pageopacity="0"
     inkscape:pageshadow="2"
     inkscape:zoom="0.36897495"
     inkscape:cx="-59.39433"
     inkscape:cy="-586.29835"
     inkscape:document-units="mm"
     inkscape:current-layer="layer1"
     inkscape:document-rotation="0"
     showgrid="false"
     showguides="true"
     inkscape:guide-bbox="true"
     units="px"
     inkscape:window-width="1366"
     inkscape:window-height="731"
     inkscape:window-x="0"
     inkscape:window-y="0"
     inkscape:window-maximized="1">
    <sodipodi:guide
       position="132.31185,-0.21916054"
       orientation="1,0"
       id="guide1699" />
    <sodipodi:guide
       position="264.70376,13.21958"
       orientation="0,-1"
       id="guide1701" />
  </sodipodi:namedview>
  <metadata
     id="metadata5">
    <rdf:RDF>
      <cc:Work
         rdf:about="">
        <dc:format>image/svg+xml</dc:format>
        <dc:type
           rdf:resource="http://purl.org/dc/dcmitype/StillImage" />
        <dc:title></dc:title>
      </cc:Work>
    </rdf:RDF>
  </metadata>
  <g
     inkscape:label="Capa 1"
     inkscape:groupmode="layer"
     id="layer1">
    <path
       d="M 55.809403,8.2608558 54.736781,20.276976 49.91528,21.613651 45.107078,20.278858 44.035578,8.2608558 Z"
       fill="#e44d26"
       id="path1183"
       style="fill:#000000;fill-opacity:1;stroke-width:0.046152" />
    <path
       d="M 49.92249,20.591954 53.818497,19.511831 54.735115,9.2435058 H 49.92249 Z"
       fill="#f16529"
       id="path1185"
       style="fill:#404040;fill-opacity:1;stroke-width:0.046152" />
    <path
       d="m 47.837357,12.191455 h 2.085133 v -1.473974 h -3.69598 l 0.03519,0.395442 0.362274,4.061829 h 3.298435 V 13.70081 H 47.97198 Z"
       fill="#ebebeb"
       id="path1187"
       style="stroke-width:0.046152" />
    <path
       d="m 48.16953,15.911756 h -1.479619 l 0.206504,2.314327 3.019301,0.838177 0.0062,-0.0019 v -1.53352 l -0.0062,0.0017 -1.641556,-0.443254 -0.104957,-1.175551 z"
       fill="#ebebeb"
       id="path1189"
       style="stroke-width:0.046152" />
    <path
       d="m 45.131028,4.9948773 h 0.749044 V 5.7349321 H 46.56527 V 4.9948773 h 0.749075 V 7.2359449 H 46.565301 V 6.4855035 H 45.880103 V 7.2359449 H 45.131059 V 4.9948773 Z"
       fill="#000000"
       id="path1191"
       style="stroke-width:0.046152" />
    <path
       d="M 48.299372,5.7380481 H 47.639947 V 4.9948773 H 49.7082 V 5.7380481 H 49.048478 V 7.2359449 H 48.299403 V 5.7380481 Z"
       fill="#000000"
       id="path1193"
       style="stroke-width:0.046152" />
    <path
       d="m 50.036448,4.9948773 h 0.781061 l 0.480453,0.7874443 0.479954,-0.7874443 h 0.781341 v 2.2410676 h -0.74596 V 6.1251487 l -0.515335,0.7968248 h -0.01246 L 50.769811,6.1251487 v 1.1107962 h -0.732927 z"
       fill="#000000"
       id="path1195"
       style="stroke-width:0.046152" />
    <path
       d="m 52.932043,4.9948773 h 0.749278 v 1.5002988 h 1.053374 v 0.7407688 h -1.802652 z"
       fill="#000000"
       id="path1197"
       style="stroke-width:0.046152" />
    <path
       d="m 49.917398,15.174752 h 1.815016 l -0.171093,1.911614 -1.643923,0.443708 v 1.533472 l 3.021699,-0.837463 0.02211,-0.249022 0.346375,-3.880451 0.03597,-0.3958 h -3.42619 z"
       fill="#ffffff"
       id="path1199"
       style="stroke-width:0.046152" />
    <path
       d="m 49.917398,12.187853 v 0.0036 h 3.560315 l 0.02959,-0.331305 0.06712,-0.747228 0.03519,-0.395442 h -3.69229 v 1.470372 z"
       fill="#ffffff"
       id="path1201"
       style="stroke-width:0.046152" />
    <path
       d="m 124.03031,4.9948794 h 16.61878 V 21.613658 h -16.61878 z"
       fill="#f7df1e"
       id="path1224"
       style="fill:#000000;fill-opacity:1;stroke-width:0.0649171" />
    <g
       id="g1753">
      <path
         d="m 128.32066,18.865053 1.28001,-0.774646 c 0.24695,0.437835 0.47158,0.808285 1.01041,0.808285 0.5165,0 0.84214,-0.202045 0.84214,-0.987922 v -5.344493 h 1.57187 v 5.366716 c 0,1.628039 -0.95432,2.369073 -2.34663,2.369073 -1.25742,0 -1.98734,-0.651242 -2.35783,-1.437145"
         fill="#000000"
         id="path1226"
         style="fill:#ffffff;fill-opacity:1;stroke-width:0.0653376" />
      <path
         d="m 133.87887,18.696621 1.27987,-0.741034 c 0.33691,0.55022 0.7748,0.954388 1.54948,0.954388 0.6513,0 1.06661,-0.325634 1.06661,-0.774752 0,-0.538936 -0.42663,-0.72983 -1.14523,-1.044101 l -0.39286,-0.168539 c -1.13407,-0.482703 -1.88637,-1.088997 -1.88637,-2.368993 0,-1.178922 0.89821,-2.077184 2.30174,-2.077184 0.99929,0 1.71786,0.348095 2.23429,1.257562 l -1.22385,0.785903 c -0.26947,-0.482756 -0.56132,-0.673597 -1.01041,-0.673597 -0.46034,0 -0.75229,0.291916 -0.75229,0.673597 0,0.471579 0.29195,0.6625 0.96554,0.954442 l 0.39294,0.168406 c 1.33612,0.572655 2.08842,1.156434 2.08842,2.470043 0,1.414791 -1.11154,2.189437 -2.60482,2.189437 -1.4596,0 -2.40276,-0.696085 -2.86303,-1.605578"
         fill="#000000"
         id="path1228"
         style="fill:#ffffff;fill-opacity:1;stroke-width:0.0653376" />
    </g>
    <path
       d="M 90.890402,21.613659 86.082184,20.278866 85.010684,8.260859 H 96.784508 L 95.711887,20.276983 Z"
       fill="#264de4"
       id="path1145"
       style="fill:#000000;fill-opacity:1;stroke-width:0.046152" />
    <path
       d="M 94.793603,19.511838 95.710237,9.2435093 H 90.897596 V 20.591961 Z"
       fill="#2965f1"
       id="path1147"
       style="fill:#404040;fill-opacity:1;stroke-width:0.046152" />
    <path
       d="m 87.467061,13.700815 0.132053,1.473943 h 3.298435 v -1.473943 z"
       fill="#ebebeb"
       id="path1149"
       style="stroke-width:0.046152" />
    <path
       d="m 87.201615,10.717485 0.133922,1.473975 h 3.561997 v -1.473975 z"
       fill="#ebebeb"
       id="path1151"
       style="stroke-width:0.046152" />
    <path
       d="m 90.897596,17.528847 -0.0062,0.0017 -1.641556,-0.443254 -0.104957,-1.175552 h -1.479635 l 0.206504,2.314327 3.019302,0.838178 0.0062,-0.0019 v -1.533542 z"
       fill="#ebebeb"
       id="path1153"
       style="stroke-width:0.046152" />
    <path
       d="m 87.781575,4.9948794 h 1.785226 v 0.7465467 h -1.038673 v 0.7465467 h 1.038673 v 0.7465468 h -1.785226 z"
       fill="#000000"
       id="path1155"
       style="stroke-width:0.046152" />
    <path
       d="m 89.923843,4.9948794 h 1.785227 v 0.649171 H 90.670396 V 5.7738846 H 91.70907 V 7.2669779 H 89.923843 V 6.5853484 h 1.038674 V 6.4555142 h -1.038674 z"
       fill="#000000"
       id="path1157"
       style="stroke-width:0.046152" />
    <path
       d="m 92.066112,4.9948794 h 1.78521 v 0.649171 h -1.038673 v 0.1298342 h 1.038673 v 1.4930933 h -1.78521 V 6.5853484 h 1.038673 V 6.4555142 h -1.038673 z"
       fill="#000000"
       id="path1159"
       style="stroke-width:0.046152" />
    <path
       d="m 94.318694,13.700815 0.2661,-2.98333 h -3.69229 v 1.473975 h 2.076958 l -0.134078,1.509355 h -1.942833 v 1.473943 h 1.815016 l -0.171093,1.911614 -1.643923,0.443709 v 1.533472 l 3.021699,-0.837464 0.02211,-0.249021 0.346359,-3.880453 z"
       fill="#ffffff"
       id="path1161"
       style="stroke-width:0.046152" />
    <path
       d="m 178.52705,6.366064 h 3.32376 L 173.54142,20.69976 165.23203,6.366064 h 3.28221 3.07447 l 1.95271,3.3237555 1.91116,-3.3237555 z"
       fill="#41b883"
       id="path1258"
       style="stroke-width:0.0649171" />
    <path
       d="m 165.23203,6.366064 8.30939,14.333696 8.30939,-14.333696 h -3.32376 l -4.98563,8.600217 -5.02718,-8.600217 z"
       fill="#41b883"
       id="path1260"
       style="fill:#000000;fill-opacity:1;stroke-width:0.0649171" />
    <path
       d="m 168.51424,6.366064 5.02718,8.641764 4.98563,-8.641764 h -3.07447 l -1.91116,3.3237555 -1.95271,-3.3237555 z"
       fill="#35495e"
       id="path1262"
       style="fill:#404040;fill-opacity:1;stroke-width:0.0649171" />
    <path
       d="m 220.65013,10.386481 c -0.19322,-0.0665 -0.39344,-0.129428 -0.59957,-0.188937 0.0338,-0.138282 0.0648,-0.2747725 0.0927,-0.4089416 0.45387,-2.2031167 0.15703,-3.9779633 -0.8562,-4.5623182 -0.97165,-0.560319 -2.56071,0.023896 -4.16558,1.4205739 -0.15432,0.1343004 -0.30909,0.2764968 -0.46377,0.4255175 -0.10309,-0.098596 -0.20599,-0.1938785 -0.30863,-0.2850156 -1.68195,-1.4934084 -3.36786,-2.1227532 -4.38017,-1.5367072 -0.97071,0.5619442 -1.25819,2.2304664 -0.84965,4.3183766 0.0395,0.201669 0.0855,0.4076164 0.13765,0.6170096 -0.23863,0.06774 -0.46896,0.139939 -0.68935,0.216754 -1.97191,0.687495 -3.23126,1.764966 -3.23126,2.882587 0,1.154288 1.35191,2.312057 3.40583,3.014071 0.16207,0.0554 0.33025,0.107782 0.50357,0.157509 -0.0562,0.226469 -0.10527,0.448396 -0.14622,0.66485 -0.38954,2.051673 -0.0853,3.68078 0.88278,4.239174 1.00002,0.576663 2.6783,-0.01609 4.31249,-1.444575 0.12909,-0.112918 0.25881,-0.232667 0.38865,-0.358185 0.16834,0.162086 0.33638,0.315484 0.50355,0.459368 1.58291,1.362156 3.14629,1.912199 4.11353,1.352243 0.99901,-0.578319 1.32367,-2.328367 0.90217,-4.457585 -0.0322,-0.162614 -0.0698,-0.328744 -0.11181,-0.497824 0.11788,-0.03485 0.23357,-0.07082 0.34639,-0.108212 2.13523,-0.707454 3.52445,-1.851132 3.52445,-3.020835 0,-1.121666 -1.29994,-2.2064 -3.31157,-2.8989 z m -0.46312,5.164475 c -0.10185,0.03372 -0.20635,0.06631 -0.31282,0.0979 -0.23573,-0.746243 -0.55388,-1.53976 -0.94317,-2.359601 0.37149,-0.800312 0.67735,-1.583685 0.90645,-2.325084 0.19054,0.05513 0.37548,0.113284 0.55366,0.174648 1.72357,0.593339 2.77492,1.470602 2.77492,2.146559 0,0.720017 -1.13544,1.654699 -2.97904,2.265577 z m -0.76496,1.515823 c 0.18638,0.941512 0.21301,1.792747 0.0895,2.458194 -0.11088,0.597948 -0.334,0.996611 -0.60984,1.156276 -0.58696,0.33975 -1.84221,-0.101882 -3.19594,-1.26681 -0.1551,-0.13354 -0.31151,-0.276131 -0.46832,-0.427044 0.52481,-0.573977 1.04931,-1.241247 1.56123,-1.982317 0.90041,-0.0799 1.75108,-0.21052 2.5225,-0.388851 0.038,0.153266 0.0718,0.303582 0.10075,0.450552 z m -7.73592,3.555756 c -0.57349,0.202532 -1.03024,0.208334 -1.30632,0.04913 -0.58751,-0.338857 -0.83175,-1.646875 -0.49861,-3.401464 0.0382,-0.20094 0.0836,-0.407352 0.13595,-0.618337 0.76296,0.168715 1.6074,0.290122 2.50997,0.363292 0.51535,0.725154 1.05501,1.391695 1.59886,1.975322 -0.11882,0.114708 -0.23717,0.223914 -0.35486,0.326821 -0.72263,0.631663 -1.44681,1.079825 -2.08499,1.305233 z m -2.6867,-5.075989 c -0.90819,-0.310411 -1.65821,-0.71385 -2.1723,-1.15409 -0.46197,-0.395613 -0.6952,-0.788377 -0.6952,-1.107076 0,-0.678211 1.01114,-1.543273 2.69753,-2.131241 0.20462,-0.07134 0.41883,-0.138578 0.64113,-0.201735 0.23305,0.758143 0.5388,1.550797 0.90774,2.352338 -0.37372,0.813442 -0.68381,1.618726 -0.91917,2.385756 -0.15839,-0.04555 -0.31199,-0.09349 -0.45973,-0.143952 z m 0.90061,-6.1303184 c -0.35003,-1.7888705 -0.11757,-3.1383286 0.46742,-3.4769547 0.62311,-0.3607373 2.00098,0.1535991 3.45321,1.443084 0.0926,0.082418 0.18601,0.1686819 0.27949,0.2579299 -0.54117,0.5810717 -1.07589,1.2426086 -1.58666,1.9634867 -0.87598,0.081191 -1.71448,0.2116147 -2.48544,0.3862665 -0.0486,-0.1949729 -0.0916,-0.3865333 -0.128,-0.5738124 z m 8.03417,1.9838404 c -0.18432,-0.318335 -0.37351,-0.629144 -0.56638,-0.931467 0.59427,0.07512 1.16362,0.17485 1.69831,0.296887 -0.16056,0.514468 -0.36059,1.052374 -0.59611,1.603808 -0.16894,-0.320755 -0.34765,-0.644164 -0.53582,-0.969228 z M 214.6579,8.2089265 c 0.36699,0.3976043 0.73453,0.8415234 1.09604,1.3231702 -0.3643,-0.017214 -0.7331,-0.026151 -1.10493,-0.026151 -0.36833,0 -0.73441,0.00874 -1.09645,0.025655 0.36189,-0.4771727 0.7326,-0.9204924 1.10534,-1.3226722 z m -3.2973,3.1966445 c -0.18409,0.319231 -0.35949,0.640883 -0.52578,0.963128 -0.2317,-0.549509 -0.42994,-1.08987 -0.59184,-1.611634 0.53142,-0.118919 1.09808,-0.216157 1.6886,-0.289855 -0.19561,0.305106 -0.38638,0.618203 -0.57098,0.938295 z m 0.58797,4.754736 c -0.6101,-0.06806 -1.18529,-0.160295 -1.71657,-0.275933 0.16444,-0.531077 0.36712,-1.082973 0.60371,-1.644321 0.16679,0.322015 0.34282,0.643798 0.52804,0.963726 h 3e-5 c 0.18867,0.325927 0.38415,0.645189 0.58479,0.956528 z m 2.73133,2.257621 c -0.37713,-0.406888 -0.75326,-0.856972 -1.12061,-1.341104 0.3566,0.01398 0.7202,0.02115 1.08972,0.02115 0.37964,0 0.75491,-0.0085 1.1243,-0.025 -0.36268,0.492852 -0.72889,0.943632 -1.09341,1.344951 z m 3.79772,-4.206487 c 0.24895,0.567414 0.45879,1.116428 0.62543,1.638456 -0.54003,0.123196 -1.12309,0.222422 -1.73742,0.296155 0.19335,-0.306401 0.38422,-0.622547 0.57175,-0.947746 0.18975,-0.32901 0.36991,-0.658517 0.54024,-0.986865 z m -1.22945,0.589363 c -0.29116,0.504819 -0.59007,0.986733 -0.89351,1.441624 -0.55269,0.03952 -1.12368,0.05987 -1.70565,0.05987 -0.57962,0 -1.14342,-0.01801 -1.68633,-0.05325 -0.3157,-0.460858 -0.62107,-0.944196 -0.91039,-1.443912 h 8e-5 c -0.28854,-0.498355 -0.55408,-1.000922 -0.79472,-1.500671 0.24055,-0.500906 0.50542,-1.004037 0.79229,-1.501498 l -6e-5,1.02e-4 c 0.28764,-0.498787 0.59036,-0.97977 0.90313,-1.437747 0.55391,-0.04187 1.12192,-0.06372 1.69597,-0.06372 h 3e-5 c 0.57663,0 1.14537,0.02203 1.69911,0.06425 0.308,0.454627 0.60867,0.934051 0.89743,1.432907 0.29205,0.504456 0.56033,1.004235 0.80293,1.494404 -0.24189,0.498588 -0.50956,1.003407 -0.80031,1.507633 z m 1.64137,-8.8852015 c 0.62372,0.3596758 0.86625,1.8102531 0.47438,3.7124049 -0.0251,0.1213753 -0.0531,0.2450004 -0.0838,0.3702876 -0.77272,-0.1782982 -1.61185,-0.3109767 -2.49036,-0.3933941 -0.51177,-0.728803 -1.04213,-1.3913656 -1.57445,-1.9649771 0.14311,-0.1376873 0.28603,-0.2689705 0.42836,-0.3928634 1.37505,-1.1966593 2.66023,-1.6691215 3.24578,-1.3314579 z m -4.24053,5.7065905 c 0.91855,0 1.66318,0.744617 1.66318,1.663187 0,0.918538 -0.74463,1.663185 -1.66318,1.663185 -0.91855,0 -1.66319,-0.744647 -1.66319,-1.663185 0,-0.91857 0.74464,-1.663187 1.66319,-1.663187 z"
       fill="#00d8ff"
       id="path1244"
       style="fill:#000000;fill-opacity:1;stroke-width:0.0727554" />
  </g>
</svg>
