<?xml version="1.0" encoding="UTF-8" standalone="no"?>
<svg
   xmlns:dc="http://purl.org/dc/elements/1.1/"
   xmlns:cc="http://creativecommons.org/ns#"
   xmlns:rdf="http://www.w3.org/1999/02/22-rdf-syntax-ns#"
   xmlns:svg="http://www.w3.org/2000/svg"
   xmlns="http://www.w3.org/2000/svg"
   xmlns:sodipodi="http://sodipodi.sourceforge.net/DTD/sodipodi-0.dtd"
   xmlns:inkscape="http://www.inkscape.org/namespaces/inkscape"
   version="1.1"
   id="svg930"
   width="929.55902"
   height="203.808"
   viewBox="0 0 929.55904 203.808"
   sodipodi:docname="joshx3.jpg.svg"
   inkscape:version="1.0 (4035a4f, 2020-05-01)">
  <sodipodi:namedview
     inkscape:guide-bbox="true"
     showguides="true"
     inkscape:document-rotation="0"
     pagecolor="#ffffff"
     bordercolor="#666666"
     borderopacity="1"
     objecttolerance="10"
     gridtolerance="10"
     guidetolerance="10"
     inkscape:pageopacity="0"
     inkscape:pageshadow="2"
     inkscape:window-width="1366"
     inkscape:window-height="731"
     id="namedview930"
     showgrid="false"
     inkscape:zoom="0.41578855"
     inkscape:cx="473.56443"
     inkscape:cy="88.380661"
     inkscape:window-x="0"
     inkscape:window-y="0"
     inkscape:window-maximized="1"
     inkscape:current-layer="svg930">
    <sodipodi:guide
       id="guide1076"
       orientation="1,0"
       position="350.18639,142.66552" />
  </sodipodi:namedview>
  <metadata
     id="metadata936">
    <rdf:RDF>
      <cc:Work
         rdf:about="">
        <dc:format>image/svg+xml</dc:format>
        <dc:type
           rdf:resource="http://purl.org/dc/dcmitype/StillImage" />
        <dc:title></dc:title>
      </cc:Work>
    </rdf:RDF>
  </metadata>
  <defs
     id="defs934" />
  <path
     id="path935"
     style="font-style:normal;font-variant:normal;font-weight:500;font-stretch:normal;font-size:239.774px;line-height:0;font-family:'Montserrat Alternates';-inkscape-font-specification:'Montserrat Alternates Medium';text-align:center;letter-spacing:-17.9831px;word-spacing:-20.4408px;text-anchor:middle;stroke-width:5.99436;image-rendering:auto"
     d="m 48.194882,203.80801 q -14.865988,0 -27.57401,-6.4739 Q 8.1526241,191.09998 3.0800605e-4,179.59083 L 13.427652,163.2862 q 13.906892,19.90124 34.527456,19.90124 29.012655,0 29.012655,-34.04791 V 30.930951 H 16.544714 V 10.070613 H 100.94516 V 147.94066 q 0,27.81379 -13.427341,41.72068 -13.18757,14.14667 -39.322937,14.14667 z" />
  <path
     id="path937"
     style="font-style:normal;font-variant:normal;font-weight:500;font-stretch:normal;font-size:239.774px;line-height:0;font-family:'Montserrat Alternates';-inkscape-font-specification:'Montserrat Alternates Medium';text-align:center;letter-spacing:-17.9831px;word-spacing:-20.4408px;text-anchor:middle;stroke-width:5.99436;image-rendering:auto"
     d="m 183.12016,179.35106 q -18.94215,0 -34.04791,-8.39209 -15.10576,-8.39209 -23.73763,-23.01831 -8.39209,-14.86598 -8.39209,-33.56836 0,-18.702368 8.39209,-33.328582 8.63187,-14.865988 23.73763,-23.018304 15.10576,-8.392091 34.04791,-8.392091 18.94215,0 33.80813,8.392091 15.10577,8.152316 23.49786,23.018304 8.63186,14.626214 8.63186,33.328582 0,18.70238 -8.63186,33.56836 -8.39209,14.62622 -23.49786,23.01831 -14.86598,8.39209 -33.80813,8.39209 z m 0,-20.14102 q 12.22847,0 21.81943,-5.5148 9.83074,-5.75458 15.34554,-15.82508 5.5148,-10.31029 5.5148,-23.49786 0,-13.18757 -5.5148,-23.258074 -5.5148,-10.310282 -15.34554,-15.825084 -9.59096,-5.514802 -21.81943,-5.514802 -12.22847,0 -22.05921,5.514802 -9.59096,5.514802 -15.34553,15.825084 -5.51481,10.070504 -5.51481,23.258074 0,13.18757 5.51481,23.49786 5.75457,10.0705 15.34553,15.82508 9.83074,5.5148 22.05921,5.5148 z" />
  <path
     id="path939"
     style="font-style:normal;font-variant:normal;font-weight:500;font-stretch:normal;font-size:239.774px;line-height:0;font-family:'Montserrat Alternates';-inkscape-font-specification:'Montserrat Alternates Medium';text-align:center;letter-spacing:-17.9831px;word-spacing:-20.4408px;text-anchor:middle;stroke-width:5.99436;image-rendering:auto"
     d="m 299.3543,179.35106 q -15.58531,0 -29.97176,-4.07616 -14.38644,-4.31593 -22.53875,-10.78983 l 9.59096,-18.22282 q 8.39209,5.99435 20.38079,9.59096 11.9887,3.59661 24.21717,3.59661 30.21153,0 30.21153,-17.26373 0,-5.75458 -4.07616,-9.11141 -4.07616,-3.35684 -10.31028,-4.79548 -5.99435,-1.67842 -17.26373,-3.59661 -15.34554,-2.39774 -25.17627,-5.51481 -9.59096,-3.11706 -16.54441,-10.55005 -6.95344,-7.433 -6.95344,-20.86034 0,-17.263728 14.38644,-27.57401 14.38644,-10.550057 38.60361,-10.550057 12.70802,0 25.41605,3.117062 12.70802,3.117062 20.86033,8.392091 L 340.35565,79.3653 q -15.58531,-10.070508 -36.68542,-10.070508 -14.62622,0 -22.29898,4.79548 -7.67277,4.79548 -7.67277,12.708022 0,6.234124 4.31593,9.830734 4.31593,3.596612 10.55006,5.275032 6.47389,1.67841 17.98305,3.83638 15.34553,2.63751 24.69672,5.75458 9.59096,2.87728 16.30463,10.0705 6.71367,7.19322 6.71367,20.14102 0,17.26373 -14.86599,27.57401 -14.62621,10.07051 -40.04225,10.07051 z" />
  <path
     id="path941"
     style="font-style:normal;font-variant:normal;font-weight:500;font-stretch:normal;font-size:239.774px;line-height:0;font-family:'Montserrat Alternates';-inkscape-font-specification:'Montserrat Alternates Medium';text-align:center;letter-spacing:-17.9831px;word-spacing:-20.4408px;text-anchor:middle;stroke-width:5.99436;image-rendering:auto"
     d="m 433.13691,49.633323 q 24.21718,0 38.36384,14.146667 14.38644,13.906892 14.38644,41.00135 v 73.13107 h -23.0183 v -70.49355 q 0,-18.4626 -8.87164,-27.813786 -8.87164,-9.351186 -25.41604,-9.351186 -18.70238,0 -29.49221,11.029604 -10.78983,10.78983 -10.78983,31.170618 v 65.4583 h -23.0183 V 1.0501099e-4 h 23.0183 V 68.815244 q 7.19322,-9.111412 18.70238,-14.146667 11.74892,-5.035254 26.13536,-5.035254 z" />
  <path
     id="path943"
     style="font-style:normal;font-variant:normal;font-weight:500;font-stretch:normal;font-size:239.774px;line-height:0;font-family:'Montserrat Alternates';-inkscape-font-specification:'Montserrat Alternates Medium';text-align:center;letter-spacing:-17.9831px;word-spacing:-20.4408px;text-anchor:middle;stroke-width:5.99436;image-rendering:auto"
     d="m 514.09428,10.070613 h 70.73333 q 26.61491,0 47.23548,10.550056 20.62056,10.550056 31.88994,29.731976 11.50915,18.942147 11.50915,43.638869 0,24.696726 -11.50915,43.878646 -11.26938,18.94214 -31.88994,29.4922 -20.62057,10.55005 -47.23548,10.55005 h -70.73333 z m 69.29469,146.981467 q 20.38079,0 35.72632,-7.91255 15.58531,-7.91254 23.9774,-22.0592 8.39209,-14.38644 8.39209,-33.088816 0,-18.702372 -8.39209,-32.849038 -8.39209,-14.386441 -23.9774,-22.298983 -15.34553,-7.912542 -35.72632,-7.912542 H 538.07168 V 157.05208 Z" />
  <path
     id="path945"
     style="font-style:normal;font-variant:normal;font-weight:500;font-stretch:normal;font-size:239.774px;line-height:0;font-family:'Montserrat Alternates';-inkscape-font-specification:'Montserrat Alternates Medium';text-align:center;letter-spacing:-17.9831px;word-spacing:-20.4408px;text-anchor:middle;stroke-width:5.99436;image-rendering:auto"
     d="m 748.15491,159.21004 q 22.77853,0 36.68542,-15.34553 l 12.46825,14.86598 q -8.39209,10.07051 -21.33989,15.34554 -12.70802,5.27503 -28.5331,5.27503 -20.14102,0 -35.72633,-8.15232 -15.58531,-8.39209 -24.21717,-23.25808 Q 679.1,133.07468 679.1,114.3723 q 0,-18.462594 8.15231,-33.328582 8.39209,-14.865988 22.77853,-23.018304 14.62622,-8.392091 32.84904,-8.392091 17.26373,0 31.4104,7.912543 14.14666,7.672768 22.53875,21.819434 8.39209,14.146666 8.63187,32.60926 l -100.94486,19.66147 q 4.79548,13.18757 16.06486,20.38079 11.50915,7.19322 27.57401,7.19322 z m -5.27503,-90.155022 q -11.9887,0 -21.57966,5.514802 -9.35118,5.514802 -14.62621,15.58531 -5.27503,9.830734 -5.27503,23.0183 v 2.39774 l 81.28339,-15.34553 Q 779.5653,86.318746 768.77547,77.686882 757.98564,69.055018 742.87988,69.055018 Z" />
  <path
     id="path947"
     style="font-style:normal;font-variant:normal;font-weight:500;font-stretch:normal;font-size:239.774px;line-height:0;font-family:'Montserrat Alternates';-inkscape-font-specification:'Montserrat Alternates Medium';text-align:center;letter-spacing:-17.9831px;word-spacing:-20.4408px;text-anchor:middle;stroke-width:5.99436;image-rendering:auto"
     d="M 929.55885,50.832193 873.93128,177.91241 H 850.43343 L 794.80586,50.832193 h 23.9774 L 862.42213,152.73614 907.0201,50.832193 Z" />
  <path
     id="rect863"
     style="opacity:0.99;fill:#000000;fill-opacity:1;stroke-width:5.92186;stroke-linejoin:round;stroke-opacity:0.974405;paint-order:markers stroke fill;image-rendering:auto"
     d="M 116.9676,10.112126 H 350.22105 V 30.753114 H 116.9676 Z" />
</svg>
