<?xml version="1.0" encoding="UTF-8" standalone="no"?>
<svg
   width="100"
   height="100"
   viewBox="0 0 100 100"
   version="1.1"
   preserveAspectRatio="xMidYMid"
   id="svg10"
   sodipodi:docname="js.svg"
   inkscape:version="1.1.1 (3bf5ae0d25, 2021-09-20)"
   xmlns:inkscape="http://www.inkscape.org/namespaces/inkscape"
   xmlns:sodipodi="http://sodipodi.sourceforge.net/DTD/sodipodi-0.dtd"
   xmlns="http://www.w3.org/2000/svg"
   xmlns:svg="http://www.w3.org/2000/svg">
  <defs
     id="defs14">
    <inkscape:path-effect
       effect="powerclip"
       id="path-effect1998"
       is_visible="true"
       lpeversion="1"
       inverse="true"
       flatten="false"
       hide_clip="false"
       message="Utilice la regla de relleno parimpar en el diálogo &lt;b&gt;Relleno y borde&lt;/b&gt; si el resultado no está aplanada después de convertir el recorte en trayectos." />
    <clipPath
       clipPathUnits="userSpaceOnUse"
       id="clipPath1990">
      <g
         id="g1996"
         style="display:none">
        <path
           d="m 67.311746,213.93229 19.590908,-11.85605 c 3.779454,6.70111 7.217575,12.3709 15.464436,12.3709 7.90511,0 12.88899,-3.09232 12.88899,-15.12026 v -81.79809 h 24.05749 V 199.667 c 0,24.91733 -14.60581,36.25894 -35.91517,36.25894 -19.245105,0 -30.416457,-9.96734 -36.08706,-21.99568"
           fill="#000000"
           id="path1992" />
        <path
           d="m 152.38095,211.35441 19.58847,-11.34161 c 5.15657,8.42118 11.85849,14.60703 23.71495,14.60703 9.96815,0 16.32467,-4.98387 16.32467,-11.85767 0,-8.24848 -6.52962,-11.17014 -17.52787,-15.98009 l -6.01275,-2.57951 c -17.35721,-7.38783 -28.87111,-16.66722 -28.87111,-36.25772 0,-18.04353 13.7472,-31.79154 35.22844,-31.79154 15.29417,0 26.29201,5.32764 34.19591,19.24713 l -18.73107,12.02834 c -4.12444,-7.38864 -8.59103,-10.30948 -15.46443,-10.30948 -7.04569,0 -11.51391,4.46781 -11.51391,10.30948 0,7.21758 4.46822,10.13964 14.77771,14.60785 l 6.01396,2.57747 c 20.44953,8.76455 31.96343,17.69936 31.96343,37.8043 0,21.65353 -17.01221,33.50958 -39.86692,33.50958 -22.33945,0 -36.7746,-10.65366 -43.81907,-24.57356"
           fill="#000000"
           id="path1994" />
      </g>
      <path
         id="lpe_path-effect1998"
         class="powerclip"
         d="M -5,-5 H 261 V 261 H -5 Z m 72.31134,218.93026 c 5.670603,12.02834 16.841955,21.99568 36.08706,21.99568 21.30936,0 35.91517,-11.34161 35.91517,-36.25894 v -82.13821 h -24.05749 v 81.79809 c 0,12.02794 -4.98388,15.12026 -12.88899,15.12026 -8.246861,0 -11.684982,-5.66979 -15.464436,-12.3709 l -19.590908,11.85605 m 85.069614,-2.57788 c 7.04447,13.9199 21.47962,24.57356 43.81907,24.57356 22.85471,0 39.86692,-11.85605 39.86692,-33.50958 0,-20.10494 -11.5139,-29.03975 -31.96343,-37.8043 l -6.01396,-2.57747 c -10.30949,-4.46821 -14.77771,-7.39027 -14.77771,-14.60785 0,-5.84167 4.46822,-10.30948 11.51391,-10.30948 6.8734,0 11.33999,2.92084 15.46443,10.30948 l 18.73107,-12.02834 c -7.9039,-13.91949 -18.90174,-19.24713 -34.19591,-19.24713 -21.48124,0 -35.22844,13.74801 -35.22844,31.79154 0,19.5905 11.5139,28.86989 28.87111,36.25772 l 6.01275,2.57951 c 10.99825,4.80995 17.52787,7.73161 17.52787,15.98009 0,6.8738 -6.35652,11.85767 -16.32467,11.85767 -11.85646,0 -18.55838,-6.18585 -23.71495,-14.60703 l -19.58847,11.34161" />
    </clipPath>
  </defs>
  <sodipodi:namedview
     id="namedview12"
     pagecolor="#505050"
     bordercolor="#ffffff"
     borderopacity="1"
     inkscape:pageshadow="0"
     inkscape:pageopacity="0"
     inkscape:pagecheckerboard="1"
     showgrid="false"
     inkscape:zoom="2"
     inkscape:cx="198.75"
     inkscape:cy="154"
     inkscape:window-width="1920"
     inkscape:window-height="1011"
     inkscape:window-x="0"
     inkscape:window-y="32"
     inkscape:window-maximized="1"
     inkscape:current-layer="g8" />
  <g
     id="g8">
    <path
       style="fill:#ffcc00;fill-opacity:0.926771;stroke:none;stroke-width:15.205;stroke-dasharray:91.2302, 15.205"
       id="rect831"
       width="256"
       height="256"
       x="0"
       y="0"
       ry="25.2845"
       clip-path="url(#clipPath1990)"
       inkscape:path-effect="#path-effect1998"
       d="m 25.2845,0 h 205.431 C 244.72311,0 256,11.276887 256,25.2845 v 205.431 C 256,244.72311 244.72311,256 230.7155,256 H 25.2845 C 11.276887,256 0,244.72311 0,230.7155 V 25.2845 C 0,11.276887 11.276887,0 25.2845,0 Z"
       sodipodi:type="rect"
       transform="matrix(0.3515625,0,0,0.3515625,5.0585022,4.858902)" />
  </g>
</svg>
