<?xml version="1.0" encoding="UTF-8" standalone="no"?>
<!-- Created with Inkscape (http://www.inkscape.org/) -->

<svg
   width="600"
   height="100"
   viewBox="0 0 600 100"
   version="1.1"
   id="svg5"
   inkscape:version="1.1.1 (3bf5ae0d25, 2021-09-20)"
   sodipodi:docname="newIcons.svg"
   xmlns:inkscape="http://www.inkscape.org/namespaces/inkscape"
   xmlns:sodipodi="http://sodipodi.sourceforge.net/DTD/sodipodi-0.dtd"
   xmlns:xlink="http://www.w3.org/1999/xlink"
   xmlns="http://www.w3.org/2000/svg"
   xmlns:svg="http://www.w3.org/2000/svg">
  <sodipodi:namedview
     id="namedview7"
     pagecolor="#505050"
     bordercolor="#ffffff"
     borderopacity="1"
     inkscape:pageshadow="0"
     inkscape:pageopacity="0"
     inkscape:pagecheckerboard="1"
     inkscape:document-units="in"
     showgrid="false"
     units="px"
     showguides="true"
     inkscape:guide-bbox="true"
     inkscape:zoom="0.90509668"
     inkscape:cx="455.19999"
     inkscape:cy="-64.081552"
     inkscape:window-width="1920"
     inkscape:window-height="1011"
     inkscape:window-x="0"
     inkscape:window-y="32"
     inkscape:window-maximized="1"
     inkscape:current-layer="layer1">
    <sodipodi:guide
       position="266.30697,50"
       orientation="0,1"
       id="guide1773"
       inkscape:label=""
       inkscape:locked="false"
       inkscape:color="rgb(0,0,255)" />
    <sodipodi:guide
       position="300,618.95599"
       orientation="-1,0"
       id="guide1775"
       inkscape:label=""
       inkscape:locked="false"
       inkscape:color="rgb(0,0,255)" />
    <sodipodi:guide
       position="56.964386,-94.09954"
       orientation="1,0"
       id="guide62132" />
    <sodipodi:guide
       position="142.67578,64.697265"
       orientation="1,0"
       id="guide62410" />
  </sodipodi:namedview>
  <defs
     id="defs2">
    <linearGradient
       inkscape:collect="always"
       id="linearGradient3252">
      <stop
         style="stop-color:#5b5b5b;stop-opacity:1"
         offset="0"
         id="stop3248" />
      <stop
         style="stop-color:#b0b0b0;stop-opacity:1"
         offset="0.55604279"
         id="stop3834" />
      <stop
         style="stop-color:#656565;stop-opacity:1"
         offset="1"
         id="stop3250" />
    </linearGradient>
    <linearGradient
       inkscape:collect="always"
       id="linearGradient1918">
      <stop
         style="stop-color:#000000;stop-opacity:1;"
         offset="0"
         id="stop1914" />
      <stop
         style="stop-color:#e6e6e6;stop-opacity:1"
         offset="0.4870002"
         id="stop2268" />
      <stop
         style="stop-color:#ffffff;stop-opacity:1"
         offset="0.51498091"
         id="stop2908" />
      <stop
         style="stop-color:#7e7e7e;stop-opacity:1"
         offset="1"
         id="stop1916" />
    </linearGradient>
    <linearGradient
       inkscape:collect="always"
       xlink:href="#linearGradient1918"
       id="linearGradient1920"
       x1="267.37878"
       y1="10.090723"
       x2="335.00235"
       y2="89.638954"
       gradientUnits="userSpaceOnUse"
       gradientTransform="matrix(0.64003742,0,0,0.64003742,-135.66458,136.48242)" />
    <linearGradient
       inkscape:collect="always"
       xlink:href="#linearGradient3252"
       id="linearGradient3414"
       x1="281.4071"
       y1="33.283894"
       x2="334.16238"
       y2="64.978455"
       gradientUnits="userSpaceOnUse"
       gradientTransform="matrix(0.64003742,0,0,0.64003742,-135.66458,136.48242)" />
  </defs>
  <g
     inkscape:label="Capa 1"
     inkscape:groupmode="layer"
     id="layer1">
    <g
       id="g62802">
      <g
         id="g1403"
         transform="matrix(0.3919016,0,0,0.3919016,175.29185,51.39791)">
        <path
           d="m -49.476267,-43.203458 -6.149219,68.886846 -27.640967,7.662984 -27.564857,-7.652191 -6.14271,-68.897639 z"
           fill="#e44d26"
           id="path1111"
           style="stroke-width:0.264583" />
        <path
           d="m -83.225144,27.489114 22.335252,-6.192203 5.254916,-58.866965 h -27.590168 z"
           fill="#f16529"
           id="path1113"
           style="stroke-width:0.264583" />
        <path
           d="m -95.17896,-20.669844 h 11.953816 v -8.450103 h -21.188626 l 0.20227,2.267018 2.07685,23.2859369 h 18.909506 v -8.4499189 h -11.181582 z"
           fill="#ebebeb"
           id="path1115"
           style="stroke-width:0.264583" />
        <path
           d="m -93.274612,0.65815494 h -8.482488 l 1.18385,13.26773206 17.309215,4.805159 0.03889,-0.01079 V 9.9286865 l -0.03703,0.00987 -9.410838,-2.5411165 -0.601599,-6.73928141 z"
           fill="#ebebeb"
           id="path1117"
           style="stroke-width:0.264583" />
        <path
           d="m -83.254359,-3.5669921 h 10.405255 l -0.980831,10.9590309 -9.424424,2.5437227 v 8.7911915 l 17.322988,-4.801066 0.127092,-1.42761 1.985666,-22.2461209 0.206177,-2.2690671 h -19.641923 z"
           fill="#ffffff"
           id="path1127"
           style="stroke-width:0.264583" />
        <path
           d="m -83.254359,-20.690497 v 0.02066 h 20.410807 l 0.169519,-1.899325 0.385,-4.28376 0.202086,-2.267019 h -21.167412 v 8.42945 z"
           fill="#ffffff"
           id="path1129"
           style="stroke-width:0.264583" />
      </g>
      <g
         id="g1385"
         transform="matrix(0.3919016,0,0,0.3919016,252.43112,12.836943)">
        <path
           d="m -85.018913,131.74088 -27.564857,-7.65219 -6.14271,-68.897639 h 67.497753 l -6.149219,68.886849 z"
           fill="#264de4"
           id="path1216"
           style="stroke-width:0.264583" />
        <path
           d="m -62.642352,119.69142 5.254916,-58.866965 h -27.590168 v 65.059165 z"
           fill="#2965f1"
           id="path1218"
           style="stroke-width:0.264583" />
        <path
           d="m -104.64446,86.377598 0.75735,8.449919 h 18.909506 v -8.449919 z"
           fill="#ebebeb"
           id="path1220"
           style="stroke-width:0.264583" />
        <path
           d="m -106.16623,69.274562 0.76814,8.450103 h 20.420486 v -8.450103 z"
           fill="#ebebeb"
           id="path1222"
           style="stroke-width:0.264583" />
        <path
           d="m -84.977604,108.3232 -0.03703,0.01 -9.410838,-2.54112 -0.601599,-6.739281 h -8.482489 l 1.18385,13.267731 17.309216,4.80516 0.03889,-0.0108 v -8.79157 z"
           fill="#ebebeb"
           id="path1224"
           style="stroke-width:0.264583" />
        <path
           d="m -65.364896,86.377598 1.525489,-17.103036 h -21.167412 v 8.450103 h 11.906924 l -0.768884,8.652933 h -11.13804 v 8.449919 h 10.405255 l -0.980831,10.959033 -9.424424,2.54372 v 8.79119 l 17.322988,-4.80106 0.127092,-1.42761 1.985666,-22.246125 z"
           fill="#ffffff"
           id="path1232"
           style="stroke-width:0.264583" />
      </g>
      <path
         d="m 470.2189,44.71734 c -0.34961,-0.12056 -0.71229,-0.23433 -1.08544,-0.34204 0.0612,-0.25021 0.11754,-0.49747 0.16781,-0.74034 0.82163,-3.98842 0.2846,-7.20155 -1.55006,-8.25944 -1.75903,-1.01435 -4.63578,0.0435 -7.54118,2.57174 -0.27969,0.24303 -0.55956,0.50057 -0.83958,0.77035 -0.18634,-0.1784 -0.37304,-0.35112 -0.55873,-0.51598 -3.04494,-2.70357 -6.09699,-3.84291 -7.92964,-2.78196 -1.75737,1.0173 -2.27781,4.03793 -1.53819,7.8178 0.0714,0.3651 0.15458,0.73791 0.24945,1.117 -0.43197,0.12246 -0.84896,0.25323 -1.24797,0.39239 -3.56984,1.2446 -5.84972,3.19521 -5.84972,5.21851 0,2.08966 2.44743,4.18564 6.16573,5.45654 0.29329,0.10016 0.59792,0.19502 0.91166,0.28498 -0.10167,0.41 -0.19049,0.81176 -0.26457,1.20363 -0.70522,3.71425 -0.15458,6.66353 1.59818,7.6744 1.81035,1.04398 4.8486,-0.0302 7.80714,-2.61517 0.23395,-0.20447 0.46851,-0.42123 0.7036,-0.64845 0.30463,0.29329 0.60895,0.57112 0.91154,0.83161 2.86568,2.46599 5.69598,3.46178 7.44703,2.44804 1.80851,-1.04697 2.3963,-4.21516 1.63321,-8.06982 -0.0582,-0.29443 -0.12623,-0.59513 -0.2022,-0.90123 0.21354,-0.0631 0.42285,-0.12813 0.6271,-0.19578 3.86551,-1.28073 6.38052,-3.35123 6.38052,-5.46879 0,-2.03063 -2.3534,-3.99436 -5.99512,-5.24802 z m -0.83841,9.34953 c -0.18407,0.0608 -0.37342,0.12019 -0.56633,0.17726 -0.42678,-1.35099 -1.00267,-2.78751 -1.70748,-4.27173 0.67257,-1.44885 1.22623,-2.86704 1.64104,-4.20922 0.34507,0.0998 0.67967,0.20522 1.00229,0.31634 3.12027,1.07418 5.02356,2.66234 5.02356,3.88604 0,1.30348 -2.05553,2.99561 -5.39308,4.1015 z m -1.38486,2.74417 c 0.33751,1.70449 0.38559,3.24552 0.16214,4.4502 -0.20069,1.0825 -0.60469,1.80424 -1.10407,2.0933 -1.06262,0.61504 -3.33506,-0.18444 -5.78582,-2.29339 -0.28082,-0.24189 -0.5639,-0.49991 -0.84778,-0.7731 0.95006,-1.0391 1.89962,-2.24712 2.82636,-3.5887 1.63004,-0.14475 3.17008,-0.38112 4.56666,-0.70397 0.0688,0.27742 0.12963,0.54958 0.18255,0.81566 z m -14.00478,6.43718 c -1.03823,0.36661 -1.86508,0.37719 -2.36492,0.0888 -1.0636,-0.61346 -1.50577,-2.98145 -0.90263,-6.15788 0.0692,-0.36359 0.15118,-0.73742 0.24605,-1.11938 1.38127,0.30539 2.91001,0.5252 4.54397,0.65768 0.93298,1.31278 1.90995,2.51947 2.89452,3.57603 -0.21506,0.20788 -0.42939,0.40536 -0.64245,0.59165 -1.30824,1.14354 -2.61921,1.95489 -3.77457,2.36296 z m -4.86387,-9.18932 c -1.64413,-0.56198 -3.00196,-1.29233 -3.93267,-2.08932 -0.8363,-0.71622 -1.25851,-1.42727 -1.25851,-2.00421 0,-1.22782 1.8305,-2.79387 4.88345,-3.85829 0.3704,-0.12926 0.75821,-0.25096 1.16066,-0.36511 0.42194,1.3725 0.97542,2.80747 1.64337,4.25855 -0.67657,1.47262 -1.23794,2.93049 -1.66401,4.31909 -0.28687,-0.0824 -0.56485,-0.16932 -0.83229,-0.26079 z m 1.63041,-11.09809 c -0.63367,-3.23849 -0.21278,-5.68146 0.8462,-6.2945 1.12804,-0.65307 3.62249,0.27817 6.25157,2.61248 0.16819,0.14929 0.33675,0.30539 0.50596,0.46696 -0.97969,1.05192 -1.94774,2.24954 -2.87244,3.55461 -1.58581,0.14702 -3.10382,0.38309 -4.49949,0.69925 -0.0877,-0.35301 -0.16554,-0.69974 -0.23168,-1.0388 z m 14.54468,3.59146 c -0.33373,-0.57631 -0.67615,-1.13896 -1.02534,-1.68628 1.07584,0.13607 2.10659,0.31673 3.07457,0.53749 -0.29065,0.93135 -0.6528,1.90515 -1.07921,2.90343 -0.30576,-0.58065 -0.62933,-1.16613 -0.97002,-1.75464 z m -5.93125,-5.77709 c 0.66437,0.71981 1.32975,1.52345 1.98418,2.39539 -0.65949,-0.0302 -1.32711,-0.0472 -2.00028,-0.0472 -0.66682,0 -1.32956,0.0151 -1.98493,0.0465 0.65507,-0.86385 1.3262,-1.66644 2.00103,-2.39452 z m -5.96931,5.78706 c -0.33335,0.57793 -0.65079,1.16024 -0.95183,1.74361 -0.41946,-0.99481 -0.77832,-1.97306 -1.07146,-2.91764 0.96204,-0.21543 1.98792,-0.39129 3.05692,-0.52475 -0.35414,0.55238 -0.69944,1.11919 -1.03363,1.69867 z m 1.06443,8.60776 c -1.10445,-0.12321 -2.14579,-0.29026 -3.10756,-0.49954 0.29782,-0.96143 0.66459,-1.96055 1.09292,-2.97679 0.30199,0.58296 0.6206,1.16549 0.95592,1.74467 h 8e-5 c 0.34166,0.59006 0.69539,1.16802 1.05864,1.73166 z m 4.94468,4.08711 c -0.68269,-0.73663 -1.36365,-1.55142 -2.02874,-2.42789 0.64566,0.0265 1.30387,0.0382 1.97284,0.0382 0.68727,0 1.36668,-0.0151 2.03539,-0.0454 -0.65662,0.89223 -1.31958,1.70831 -1.97949,2.43484 z m 6.87523,-7.61526 c 0.45067,1.02724 0.83059,2.02114 1.13227,2.96621 -0.97769,0.223 -2.0332,0.40264 -3.14536,0.53613 0.34998,-0.55468 0.69558,-1.12702 1.03506,-1.71575 0.34356,-0.59562 0.66966,-1.19214 0.97803,-1.78659 z m -2.22573,1.06696 c -0.52709,0.91393 -1.06821,1.78636 -1.61756,2.60988 -1.00059,0.0714 -2.03426,0.10847 -3.08784,0.10847 -1.04931,0 -2.06997,-0.034 -3.05287,-0.0964 -0.57151,-0.83433 -1.12437,-1.70937 -1.6481,-2.614 h 1.1e-4 C 454.13153,51.81455 453.65077,50.9047 453.21514,50 c 0.43552,-0.90683 0.91499,-1.81765 1.43434,-2.71824 l -1.2e-4,1.9e-4 c 0.52075,-0.90301 1.06874,-1.77373 1.63499,-2.60285 1.00278,-0.0756 2.03108,-0.11527 3.0703,-0.11527 h 7e-5 c 1.04391,0 2.07353,0.0397 3.07601,0.11641 0.55755,0.82306 1.10188,1.69099 1.62463,2.59407 0.52872,0.91325 1.01439,1.81803 1.45361,2.70543 -0.4379,0.90263 -0.92251,1.81652 -1.44885,2.72935 z m 2.97147,-16.08536 c 1.12913,0.65113 1.56823,3.27719 0.85882,6.72079 -0.0454,0.21959 -0.096,0.44353 -0.15156,0.67034 -1.39892,-0.32277 -2.91799,-0.563 -4.50841,-0.71218 -0.92651,-1.31939 -1.88663,-2.51886 -2.85037,-3.55733 0.2589,-0.24945 0.51783,-0.48691 0.77552,-0.71119 2.48931,-2.16639 4.81595,-3.02173 5.876,-2.41043 z m -7.67687,10.33096 c 1.66288,0 3.01096,1.348 3.01096,3.01096 0,1.66288 -1.34808,3.01096 -3.01096,3.01096 -1.66291,0 -3.01096,-1.34808 -3.01096,-3.01096 0,-1.66296 1.34805,-3.01096 3.01096,-3.01096 z"
         fill="#00d8ff"
         id="path1336"
         style="stroke-width:0.131713" />
      <g
         id="g1356"
         transform="matrix(0.13586956,0,0,0.13586956,526.89014,34.466408)">
        <path
           d="M 204.8,0 H 256 L 128,220.8 0,0 H 50.56 97.92 L 128,51.2 157.44,0 Z"
           fill="#41b883"
           id="path1350" />
        <path
           d="M 0,0 128,220.8 256,0 H 204.8 L 128,132.48 50.56,0 Z"
           fill="#41b883"
           id="path1352" />
        <path
           d="M 50.56,0 128,133.12 204.8,0 H 157.44 L 128,51.2 97.92,0 Z"
           fill="#35495e"
           id="path1354" />
      </g>
      <g
         aria-label="JS"
         id="text1409"
         style="font-size:15.2435px;line-height:1.25;font-family:'DejaVu Serif';-inkscape-font-specification:'DejaVu Serif';stroke-width:0.381089"
         transform="translate(-66.587402,-163.26023)">
        <g
           id="g23892">
          <rect
             style="opacity:0.956;fill:#ffbe00;fill-opacity:0.999972;stroke-width:0.0591266;stroke-linejoin:round;paint-order:markers stroke fill"
             id="rect1405"
             width="30"
             height="30"
             x="348.94189"
             y="197.72664"
             ry="4.5410624" />
          <g
             id="g23885">
            <path
               d="m 365.23909,214.07116 h 2.23293 v 7.50266 q 0,1.0346 -0.46147,1.83101 -0.45403,0.78897 -1.28766,1.22067 -0.83363,0.4317 -1.88311,0.4317 -1.71936,0 -2.67952,-0.87084 -0.96016,-0.87829 -0.96016,-2.47856 h 2.24782 q 0,0.79641 0.33494,1.17601 0.33494,0.3796 1.05692,0.3796 0.64011,0 1.01971,-0.43914 0.3796,-0.43915 0.3796,-1.25045 z"
               style="font-weight:bold;font-family:Roboto;-inkscape-font-specification:'Roboto Bold'"
               id="path23702" />
            <path
               d="m 375.00446,222.06507 q 0,-0.63266 -0.44659,-0.9676 -0.44659,-0.34239 -1.60771,-0.71454 -1.16113,-0.3796 -1.83845,-0.74432 -1.8459,-0.99737 -1.8459,-2.68696 0,-0.87829 0.49125,-1.56305 0.49869,-0.69221 1.42163,-1.07926 0.93039,-0.38704 2.08408,-0.38704 1.16112,0 2.06918,0.42426 0.90806,0.41681 1.40675,1.18346 0.50613,0.76664 0.50613,1.74168 h -2.23293 q 0,-0.74431 -0.46892,-1.15368 -0.46891,-0.41681 -1.31743,-0.41681 -0.81874,0 -1.27277,0.34982 -0.45403,0.34239 -0.45403,0.90806 0,0.52846 0.52846,0.88573 0.5359,0.35727 1.5705,0.66988 1.90543,0.57312 2.77628,1.42164 0.87084,0.84851 0.87084,2.11384 0,1.40675 -1.06436,2.21061 -1.06437,0.79641 -2.8656,0.79641 -1.25045,0 -2.2776,-0.45403 -1.02715,-0.46147 -1.57049,-1.25788 -0.53591,-0.79642 -0.53591,-1.8459 h 2.24038 q 0,1.79379 2.14362,1.79379 0.79641,0 1.243,-0.32005 0.44659,-0.3275 0.44659,-0.90806 z"
               style="font-weight:bold;font-family:Roboto;-inkscape-font-specification:'Roboto Bold'"
               id="path23699" />
          </g>
        </g>
      </g>
      <g
         id="g61595"
         transform="translate(12.555237,-201.71212)">
        <rect
           style="font-size:15.2435px;line-height:1.25;font-family:'DejaVu Serif';-inkscape-font-specification:'DejaVu Serif';opacity:0.956;fill:#0066ff;fill-opacity:0.999972;stroke-width:0.0591266;stroke-linejoin:round;paint-order:markers stroke fill"
           id="rect1405-3"
           width="30"
           height="30"
           x="349.79926"
           y="236.17853"
           ry="4.5410624" />
        <g
           aria-label="TS"
           id="text49522"
           style="font-size:14.6667px"
           transform="translate(42.473548,8.167549)">
          <path
             d="m 326.72629,246.37682 h -3.19402 v 8.68687 h -2.14844 v -8.68687 h -3.15105 v -1.74024 h 8.49351 z"
             style="-inkscape-font-specification:'Roboto Bold'"
             id="path61444" />
          <path
             d="m 333.24323,252.32801 q 0,-0.60873 -0.42969,-0.93099 -0.42969,-0.32943 -1.54688,-0.68751 -1.11719,-0.36523 -1.76888,-0.71614 -1.77605,-0.95964 -1.77605,-2.5853 0,-0.84505 0.47266,-1.50391 0.47982,-0.66601 1.36784,-1.03841 0.89519,-0.3724 2.00522,-0.3724 1.11719,0 1.99089,0.40821 0.87369,0.40104 1.35351,1.13867 0.48698,0.73763 0.48698,1.67579 h -2.14844 q 0,-0.71615 -0.45117,-1.11003 -0.45117,-0.40104 -1.26758,-0.40104 -0.78776,0 -1.22461,0.33659 -0.43685,0.32942 -0.43685,0.8737 0,0.50846 0.50846,0.85221 0.51563,0.34375 1.51107,0.64453 1.83334,0.55144 2.67123,1.36785 0.83789,0.8164 0.83789,2.03385 0,1.35352 -1.02409,2.12696 -1.02409,0.76628 -2.75716,0.76628 -1.20313,0 -2.19142,-0.43685 -0.98828,-0.44401 -1.51107,-1.21029 -0.51562,-0.76628 -0.51562,-1.77605 h 2.1556 q 0,1.72592 2.06251,1.72592 0.76627,0 1.19596,-0.30794 0.42969,-0.31511 0.42969,-0.8737 z"
             style="-inkscape-font-specification:'Roboto Bold'"
             id="path61446" />
        </g>
      </g>
      <g
         id="g62224"
         transform="translate(0,-127.29129)">
        <path
           id="rect1728"
           style="fill:url(#linearGradient3414);fill-opacity:1;stroke:url(#linearGradient1920);stroke-width:0.23006;stroke-miterlimit:4;stroke-dasharray:none;stroke-opacity:1"
           d="m 56.964386,142.86904 -11.12065,12.807 h 11.12065 11.09315 v 19.21113 l -11.09315,6.40412 -22.18255,-12.807 v 12.807 l 22.18255,12.80825 22.18379,-12.80825 v -25.61525 -12.807 h -11.09064 z" />
        <g
           id="g61736"
           transform="matrix(0.0468494,0,0,0.0468494,35.279256,199.23675)">
          <path
             id="path935"
             style="font-style:normal;font-variant:normal;font-weight:500;font-stretch:normal;font-size:239.774px;line-height:0;font-family:'Montserrat Alternates';-inkscape-font-specification:'Montserrat Alternates Medium';text-align:center;letter-spacing:-17.9831px;word-spacing:-20.4408px;text-anchor:middle;fill:#ffffff;stroke-width:5.99436;image-rendering:auto"
             d="m 48.194882,203.80801 q -14.865988,0 -27.57401,-6.4739 Q 8.1526241,191.09998 3.0800605e-4,179.59083 L 13.427652,163.2862 q 13.906892,19.90124 34.527456,19.90124 29.012655,0 29.012655,-34.04791 V 30.930951 H 16.544714 V 10.070613 H 100.94516 V 147.94066 q 0,27.81379 -13.427341,41.72068 -13.18757,14.14667 -39.322937,14.14667 z" />
          <path
             id="path937"
             style="font-style:normal;font-variant:normal;font-weight:500;font-stretch:normal;font-size:239.774px;line-height:0;font-family:'Montserrat Alternates';-inkscape-font-specification:'Montserrat Alternates Medium';text-align:center;letter-spacing:-17.9831px;word-spacing:-20.4408px;text-anchor:middle;fill:#ffffff;stroke-width:5.99436;image-rendering:auto"
             d="m 183.12016,179.35106 q -18.94215,0 -34.04791,-8.39209 -15.10576,-8.39209 -23.73763,-23.01831 -8.39209,-14.86598 -8.39209,-33.56836 0,-18.702368 8.39209,-33.328582 8.63187,-14.865988 23.73763,-23.018304 15.10576,-8.392091 34.04791,-8.392091 18.94215,0 33.80813,8.392091 15.10577,8.152316 23.49786,23.018304 8.63186,14.626214 8.63186,33.328582 0,18.70238 -8.63186,33.56836 -8.39209,14.62622 -23.49786,23.01831 -14.86598,8.39209 -33.80813,8.39209 z m 0,-20.14102 q 12.22847,0 21.81943,-5.5148 9.83074,-5.75458 15.34554,-15.82508 5.5148,-10.31029 5.5148,-23.49786 0,-13.18757 -5.5148,-23.258074 -5.5148,-10.310282 -15.34554,-15.825084 -9.59096,-5.514802 -21.81943,-5.514802 -12.22847,0 -22.05921,5.514802 -9.59096,5.514802 -15.34553,15.825084 -5.51481,10.070504 -5.51481,23.258074 0,13.18757 5.51481,23.49786 5.75457,10.0705 15.34553,15.82508 9.83074,5.5148 22.05921,5.5148 z" />
          <path
             id="path939"
             style="font-style:normal;font-variant:normal;font-weight:500;font-stretch:normal;font-size:239.774px;line-height:0;font-family:'Montserrat Alternates';-inkscape-font-specification:'Montserrat Alternates Medium';text-align:center;letter-spacing:-17.9831px;word-spacing:-20.4408px;text-anchor:middle;fill:#ffffff;stroke-width:5.99436;image-rendering:auto"
             d="m 299.3543,179.35106 q -15.58531,0 -29.97176,-4.07616 -14.38644,-4.31593 -22.53875,-10.78983 l 9.59096,-18.22282 q 8.39209,5.99435 20.38079,9.59096 11.9887,3.59661 24.21717,3.59661 30.21153,0 30.21153,-17.26373 0,-5.75458 -4.07616,-9.11141 -4.07616,-3.35684 -10.31028,-4.79548 -5.99435,-1.67842 -17.26373,-3.59661 -15.34554,-2.39774 -25.17627,-5.51481 -9.59096,-3.11706 -16.54441,-10.55005 -6.95344,-7.433 -6.95344,-20.86034 0,-17.263728 14.38644,-27.57401 14.38644,-10.550057 38.60361,-10.550057 12.70802,0 25.41605,3.117062 12.70802,3.117062 20.86033,8.392091 L 340.35565,79.3653 q -15.58531,-10.070508 -36.68542,-10.070508 -14.62622,0 -22.29898,4.79548 -7.67277,4.79548 -7.67277,12.708022 0,6.234124 4.31593,9.830734 4.31593,3.596612 10.55006,5.275032 6.47389,1.67841 17.98305,3.83638 15.34553,2.63751 24.69672,5.75458 9.59096,2.87728 16.30463,10.0705 6.71367,7.19322 6.71367,20.14102 0,17.26373 -14.86599,27.57401 -14.62621,10.07051 -40.04225,10.07051 z" />
          <path
             id="path941"
             style="font-style:normal;font-variant:normal;font-weight:500;font-stretch:normal;font-size:239.774px;line-height:0;font-family:'Montserrat Alternates';-inkscape-font-specification:'Montserrat Alternates Medium';text-align:center;letter-spacing:-17.9831px;word-spacing:-20.4408px;text-anchor:middle;fill:#ffffff;stroke-width:5.99436;image-rendering:auto"
             d="m 433.13691,49.633323 q 24.21718,0 38.36384,14.146667 14.38644,13.906892 14.38644,41.00135 v 73.13107 h -23.0183 v -70.49355 q 0,-18.4626 -8.87164,-27.813786 -8.87164,-9.351186 -25.41604,-9.351186 -18.70238,0 -29.49221,11.029604 -10.78983,10.78983 -10.78983,31.170618 v 65.4583 h -23.0183 V 1.0501099e-4 h 23.0183 V 68.815244 q 7.19322,-9.111412 18.70238,-14.146667 11.74892,-5.035254 26.13536,-5.035254 z" />
          <path
             id="path943"
             style="font-style:normal;font-variant:normal;font-weight:500;font-stretch:normal;font-size:239.774px;line-height:0;font-family:'Montserrat Alternates';-inkscape-font-specification:'Montserrat Alternates Medium';text-align:center;letter-spacing:-17.9831px;word-spacing:-20.4408px;text-anchor:middle;fill:#ffffff;stroke-width:5.99436;image-rendering:auto"
             d="m 514.09428,10.070613 h 70.73333 q 26.61491,0 47.23548,10.550056 20.62056,10.550056 31.88994,29.731976 11.50915,18.942147 11.50915,43.638869 0,24.696726 -11.50915,43.878646 -11.26938,18.94214 -31.88994,29.4922 -20.62057,10.55005 -47.23548,10.55005 h -70.73333 z m 69.29469,146.981467 q 20.38079,0 35.72632,-7.91255 15.58531,-7.91254 23.9774,-22.0592 8.39209,-14.38644 8.39209,-33.088816 0,-18.702372 -8.39209,-32.849038 -8.39209,-14.386441 -23.9774,-22.298983 -15.34553,-7.912542 -35.72632,-7.912542 H 538.07168 V 157.05208 Z" />
          <path
             id="path945"
             style="font-style:normal;font-variant:normal;font-weight:500;font-stretch:normal;font-size:239.774px;line-height:0;font-family:'Montserrat Alternates';-inkscape-font-specification:'Montserrat Alternates Medium';text-align:center;letter-spacing:-17.9831px;word-spacing:-20.4408px;text-anchor:middle;fill:#ffffff;stroke-width:5.99436;image-rendering:auto"
             d="m 748.15491,159.21004 q 22.77853,0 36.68542,-15.34553 l 12.46825,14.86598 q -8.39209,10.07051 -21.33989,15.34554 -12.70802,5.27503 -28.5331,5.27503 -20.14102,0 -35.72633,-8.15232 -15.58531,-8.39209 -24.21717,-23.25808 Q 679.1,133.07468 679.1,114.3723 q 0,-18.462594 8.15231,-33.328582 8.39209,-14.865988 22.77853,-23.018304 14.62622,-8.392091 32.84904,-8.392091 17.26373,0 31.4104,7.912543 14.14666,7.672768 22.53875,21.819434 8.39209,14.146666 8.63187,32.60926 l -100.94486,19.66147 q 4.79548,13.18757 16.06486,20.38079 11.50915,7.19322 27.57401,7.19322 z m -5.27503,-90.155022 q -11.9887,0 -21.57966,5.514802 -9.35118,5.514802 -14.62621,15.58531 -5.27503,9.830734 -5.27503,23.0183 v 2.39774 l 81.28339,-15.34553 Q 779.5653,86.318746 768.77547,77.686882 757.98564,69.055018 742.87988,69.055018 Z" />
          <path
             id="path947"
             style="font-style:normal;font-variant:normal;font-weight:500;font-stretch:normal;font-size:239.774px;line-height:0;font-family:'Montserrat Alternates';-inkscape-font-specification:'Montserrat Alternates Medium';text-align:center;letter-spacing:-17.9831px;word-spacing:-20.4408px;text-anchor:middle;fill:#ffffff;stroke-width:5.99436;image-rendering:auto"
             d="M 929.55885,50.832193 873.93128,177.91241 H 850.43343 L 794.80586,50.832193 h 23.9774 L 862.42213,152.73614 907.0201,50.832193 Z" />
          <path
             id="rect863"
             style="opacity:0.99;fill:#ffffff;fill-opacity:1;stroke-width:5.92186;stroke-linejoin:round;stroke-opacity:0.974405;paint-order:markers stroke fill;image-rendering:auto"
             d="M 116.9676,10.112126 H 350.22105 V 30.753114 H 116.9676 Z" />
        </g>
      </g>
    </g>
  </g>
</svg>
