<?xml version="1.0" encoding="UTF-8" standalone="no"?>
<svg
   width="100"
   height="100"
   viewBox="0 0 100 100"
   version="1.1"
   preserveAspectRatio="xMidYMid"
   id="svg10"
   sodipodi:docname="ts.svg"
   inkscape:version="1.1.1 (3bf5ae0d25, 2021-09-20)"
   xmlns:inkscape="http://www.inkscape.org/namespaces/inkscape"
   xmlns:sodipodi="http://sodipodi.sourceforge.net/DTD/sodipodi-0.dtd"
   xmlns="http://www.w3.org/2000/svg"
   xmlns:svg="http://www.w3.org/2000/svg"
   xmlns:rdf="http://www.w3.org/1999/02/22-rdf-syntax-ns#"
   xmlns:cc="http://creativecommons.org/ns#"
   xmlns:dc="http://purl.org/dc/elements/1.1/">
  <metadata
     id="metadata16">
    <rdf:RDF>
      <cc:Work
         rdf:about="">
        <dc:format>image/svg+xml</dc:format>
        <dc:type
           rdf:resource="http://purl.org/dc/dcmitype/StillImage" />
      </cc:Work>
    </rdf:RDF>
  </metadata>
  <defs
     id="defs14">
    <inkscape:path-effect
       effect="powerclip"
       id="path-effect951"
       is_visible="true"
       lpeversion="1"
       inverse="true"
       flatten="false"
       hide_clip="false"
       message="Utilice la regla de relleno parimpar en el diálogo &lt;b&gt;Relleno y borde&lt;/b&gt; si el resultado no está aplanada después de convertir el recorte en trayectos." />
    <clipPath
       clipPathUnits="userSpaceOnUse"
       id="clipPath943">
      <g
         id="g949"
         style="display:none;fill:#000000"
         transform="translate(9.9250562,8.4979321)">
        <path
           d="m 56.61115,128.84912 -0.0813,10.48381 H 73.1902 89.85051 v 47.33968 47.33968 h 11.78413 11.78413 v -47.33968 -47.33968 h 16.66032 16.66031 v -10.28064 c 0,-5.68889 -0.1219,-10.44317 -0.28444,-10.56508 -0.12191,-0.16254 -20.39873,-0.24381 -44.98286,-0.20317 l -44.73905,0.1219 z"
           fill="#ffffff"
           id="path945"
           style="fill:#000000" />
        <path
           d="m 206.56663,118.10834 c 6.50159,1.62539 11.45905,4.51047 16.01016,9.22412 2.35683,2.51937 5.85143,7.11111 6.13587,8.20826 0.0813,0.32508 -11.0527,7.8019 -17.79809,11.9873 -0.24381,0.16254 -1.21905,-0.89397 -2.31619,-2.51937 -3.29143,-4.79492 -6.7454,-6.8673 -12.02794,-7.23301 -7.76127,-0.52826 -12.75936,3.53524 -12.71873,10.32127 0,1.99111 0.28444,3.16952 1.09714,4.79492 1.70667,3.53524 4.87619,5.64825 14.83175,9.95555 18.32635,7.88318 26.16889,13.08445 31.04508,20.48 5.44508,8.24889 6.66413,21.41461 2.96635,31.20762 -4.06349,10.64635 -14.14095,17.87937 -28.32254,20.27683 -4.38857,0.77206 -14.79111,0.65016 -19.50476,-0.20318 -10.28064,-1.82857 -20.03302,-6.90793 -26.04699,-13.57206 -2.35682,-2.60064 -6.94857,-9.38667 -6.66412,-9.87429 0.1219,-0.16254 1.17841,-0.81269 2.35682,-1.50349 1.13778,-0.65016 5.44508,-3.12889 9.50857,-5.48571 l 7.35492,-4.26667 1.54413,2.27556 c 2.15365,3.29143 6.8673,7.8019 9.71175,9.30539 8.16761,4.30731 19.38285,3.69778 24.9092,-1.25968 2.35683,-2.15365 3.33207,-4.38857 3.33207,-7.68 0,-2.96635 -0.36572,-4.26667 -1.90985,-6.50159 -1.99111,-2.84444 -6.0546,-5.2419 -17.59492,-10.24 -13.20635,-5.68889 -18.89523,-9.22412 -24.0965,-14.83174 -3.00699,-3.2508 -5.85143,-8.45207 -7.02985,-12.8 -0.97523,-3.61651 -1.21904,-12.6781 -0.44698,-16.33524 2.72254,-12.75937 12.35302,-21.65841 26.25016,-24.29968 4.51048,-0.85334 14.99428,-0.52826 19.42349,0.56889 z"
           fill="#ffffff"
           id="path947"
           style="fill:#000000" />
      </g>
      <path
         id="lpe_path-effect951"
         style="fill:#000000"
         class="powerclip"
         d="M -5,-5 H 261 V 261 H -5 Z m 61.61115,133.84912 -0.0813,10.48381 H 73.1902 89.85051 v 47.33968 47.33968 h 11.78413 11.78413 v -47.33968 -47.33968 h 16.66032 16.66031 v -10.28064 c 0,-5.68889 -0.1219,-10.44317 -0.28444,-10.56508 -0.12191,-0.16254 -20.39873,-0.24381 -44.98286,-0.20317 l -44.73905,0.1219 z m 149.95548,-10.74078 c -4.42921,-1.09715 -14.91301,-1.42223 -19.42349,-0.56889 -13.89714,2.64127 -23.52762,11.54031 -26.25016,24.29968 -0.77206,3.65714 -0.52825,12.71873 0.44698,16.33524 1.17842,4.34793 4.02286,9.5492 7.02985,12.8 5.20127,5.60762 10.89015,9.14285 24.0965,14.83174 11.54032,4.9981 15.60381,7.39556 17.59492,10.24 1.54413,2.23492 1.90985,3.53524 1.90985,6.50159 0,3.29143 -0.97524,5.52635 -3.33207,7.68 -5.52635,4.95746 -16.74159,5.56699 -24.9092,1.25968 -2.84445,-1.50349 -7.5581,-6.01396 -9.71175,-9.30539 l -1.54413,-2.27556 -7.35492,4.26667 c -4.06349,2.35682 -8.37079,4.83555 -9.50857,5.48571 -1.17841,0.6908 -2.23492,1.34095 -2.35682,1.50349 -0.28445,0.48762 4.3073,7.27365 6.66412,9.87429 6.01397,6.66413 15.76635,11.74349 26.04699,13.57206 4.71365,0.85334 15.11619,0.97524 19.50476,0.20318 14.18159,-2.39746 24.25905,-9.63048 28.32254,-20.27683 3.69778,-9.79301 2.47873,-22.95873 -2.96635,-31.20762 -4.87619,-7.39555 -12.71873,-12.59682 -31.04508,-20.48 -9.95556,-4.3073 -13.12508,-6.42031 -14.83175,-9.95555 -0.8127,-1.6254 -1.09714,-2.80381 -1.09714,-4.79492 -0.0406,-6.78603 4.95746,-10.84953 12.71873,-10.32127 5.28254,0.36571 8.73651,2.43809 12.02794,7.23301 1.09714,1.6254 2.07238,2.68191 2.31619,2.51937 6.74539,-4.1854 17.87939,-11.66222 17.79809,-11.9873 -0.28444,-1.09715 -3.77904,-5.68889 -6.13587,-8.20826 -4.55111,-4.71365 -9.50857,-7.59873 -16.01016,-9.22412 z" />
    </clipPath>
  </defs>
  <sodipodi:namedview
     pagecolor="#ffffff"
     bordercolor="#666666"
     borderopacity="1"
     objecttolerance="10"
     gridtolerance="10"
     guidetolerance="10"
     inkscape:pageopacity="0"
     inkscape:pageshadow="2"
     inkscape:window-width="1920"
     inkscape:window-height="1011"
     id="namedview12"
     showgrid="false"
     showguides="true"
     inkscape:guide-bbox="true"
     inkscape:zoom="3.0383494"
     inkscape:cx="25.50727"
     inkscape:cy="62.204827"
     inkscape:window-x="0"
     inkscape:window-y="32"
     inkscape:window-maximized="1"
     inkscape:current-layer="svg10"
     inkscape:pagecheckerboard="1">
    <sodipodi:guide
       position="50,44.706821"
       orientation="-1,0"
       id="guide955"
       inkscape:label=""
       inkscape:locked="false"
       inkscape:color="rgb(0,0,255)" />
    <sodipodi:guide
       position="-37.191245,50"
       orientation="0,1"
       id="guide957"
       inkscape:label=""
       inkscape:locked="false"
       inkscape:color="rgb(0,0,255)" />
  </sodipodi:namedview>
  <path
     style="fill:#3178c6;fill-opacity:1"
     id="rect882"
     width="256"
     height="256"
     x="0"
     y="0"
     ry="19.80287"
     sodipodi:type="rect"
     clip-path="url(#clipPath943)"
     inkscape:path-effect="#path-effect951"
     d="M 19.80287,0 H 236.19713 C 247.16792,0 256,8.8320799 256,19.80287 V 236.19713 C 256,247.16792 247.16792,256 236.19713,256 H 19.80287 C 8.8320799,256 0,247.16792 0,236.19713 V 19.80287 C 0,8.8320799 8.8320799,0 19.80287,0 Z"
     transform="matrix(0.35422585,0,0,0.35422585,4.4490676,4.3583109)" />
</svg>
